HIERARCHY
ROOT SpineBase
{
  OFFSET 0.000000 0.000000 0.000000
  CHANNELS 6 Xposition Yposition Zposition Zrotation Xrotation Yrotation
  JOINT SpineMid
  {
    OFFSET -0.000000 29.582806 0.000000
    CHANNELS 3 Zrotation Xrotation Yrotation
    JOINT SpineShoulder
    {
      OFFSET -0.113535 22.022339 -0.747724
      CHANNELS 3 Zrotation Xrotation Yrotation
      JOINT Neck
      {
        OFFSET -0.026986 7.295470 -0.500737
        CHANNELS 3 Zrotation Xrotation Yrotation
        JOINT Head
        {
          OFFSET -3.789967 10.268534 -0.227327
          CHANNELS 3 Zrotation Xrotation Yrotation
          End Site
          {
            OFFSET 0 0 0
          }
        }
      }
      JOINT ShoulderLeft
      {
        OFFSET -15.862172 -5.035454 6.545843
        CHANNELS 3 Zrotation Xrotation Yrotation
        JOINT ElbowLeft
        {
          OFFSET -2.199619 -24.955704 0.969260
          CHANNELS 3 Zrotation Xrotation Yrotation
          JOINT WristLeft
          {
            OFFSET 0.219470 -20.888371 -4.221732
            CHANNELS 3 Zrotation Xrotation Yrotation
            JOINT HandLeft
            {
              OFFSET -0.671225 -6.119392 -1.432033
              CHANNELS 3 Zrotation Xrotation Yrotation
              JOINT HandTipLeft
              {
                OFFSET -0.607879 -6.814404 -0.153791
                CHANNELS 3 Zrotation Xrotation Yrotation
                End Site
                {
                  OFFSET 0 0 0
                }
              }
              JOINT ThumbLeft
              {
                OFFSET 4.339315 -0.188629 -2.734892
                CHANNELS 3 Zrotation Xrotation Yrotation
                End Site
                {
                  OFFSET 0 0 0
                }
              }
            }
          }
        }
      }
      JOINT ShoulderRight
      {
        OFFSET 14.054241 -2.791385 -7.564637
        CHANNELS 3 Zrotation Xrotation Yrotation
        JOINT ElbowRight
        {
          OFFSET 5.867467 -23.954245 -0.522450
          CHANNELS 3 Zrotation Xrotation Yrotation
          JOINT WristRight
          {
            OFFSET -2.260473 -17.984436 -5.495780
            CHANNELS 3 Zrotation Xrotation Yrotation
            JOINT HandRight
            {
              OFFSET -3.067194 -6.740107 -1.471824
              CHANNELS 3 Zrotation Xrotation Yrotation
              JOINT HandTipRight
              {
                OFFSET -1.720395 -6.667346 -1.337267
                CHANNELS 3 Zrotation Xrotation Yrotation
                End Site
                {
                  OFFSET 0 0 0
                }
              }
              JOINT ThumbRight
              {
                OFFSET 1.817545 -2.879870 -1.688320
                CHANNELS 3 Zrotation Xrotation Yrotation
                End Site
                {
                  OFFSET 0 0 0
                }
              }
            }
          }
        }
      }
    }
  }
  JOINT HipLeft
  {
    OFFSET -5.318327 0.273551 -0.557941
    CHANNELS 3 Zrotation Xrotation Yrotation
    JOINT KneeLeft
    {
      OFFSET 2.814112 -28.105895 6.606178
      CHANNELS 3 Zrotation Xrotation Yrotation
      JOINT AnkleLeft
      {
        OFFSET 5.413770 -31.971893 5.182868
        CHANNELS 3 Zrotation Xrotation Yrotation
        JOINT FootLeft
        {
          OFFSET 2.801583 -7.071139 -6.302965
          CHANNELS 3 Zrotation Xrotation Yrotation
          End Site
          {
            OFFSET 0 0 0
          }
        }
      }
    }
  }
  JOINT HipRight
  {
    OFFSET 5.995821 1.350678 -5.998206
    CHANNELS 3 Zrotation Xrotation Yrotation
    JOINT KneeRight
    {
      OFFSET 6.922056 -27.289466 5.005501
      CHANNELS 3 Zrotation Xrotation Yrotation
      JOINT AnkleRight
      {
        OFFSET 3.195388 -32.538887 6.967517
        CHANNELS 3 Zrotation Xrotation Yrotation
        JOINT FootRight
        {
          OFFSET -4.736313 -6.638473 -2.734897
          CHANNELS 3 Zrotation Xrotation Yrotation
          End Site
          {
            OFFSET 0 0 0
          }
        }
      }
    }
  }
}
MOTION
Frames: 9
Frame Time: 0.033333
-37.909476 67.025758 346.599932 0.000000 0.000000 25.679985 -0.000000 0.000000 -25.679985 -0.000000 0.000000 0.000000 -0.000000 0.000000 0.000000 0.000000 0.000000 0.000000 -0.000000 0.000000 0.000000 -0.000000 0.000000 0.000000 -0.000000 0.000000 0.000000 -0.000000 0.000000 0.000000 0.000000 0.000000 0.000000 0.000000 0.000000 0.000000 -0.000000 0.000000 0.000000 -0.000000 0.000000 0.000000 -0.000000 0.000000 0.000000 -0.000000 0.000000 0.000000 0.000000 0.000000 0.000000 0.000000 0.000000 0.000000 -0.000000 0.000000 -25.679985 -0.000000 0.000000 0.000000 -0.000000 0.000000 0.000000 0.000000 0.000000 0.000000 -0.000000 0.000000 -25.679985 -0.000000 0.000000 0.000000 -0.000000 0.000000 0.000000 0.000000 0.000000 0.000000
-37.911037 66.988122 346.672189 0.124757 -0.077833 25.091998 -0.079977 0.123394 -25.091827 -0.000000 0.000000 0.000000 -0.000000 0.000000 0.000000 0.000000 0.000000 0.000000 -0.000000 0.000000 0.000000 -0.001631 -1.635276 -0.016925 0.967866 -2.729759 0.281703 -4.864300 4.873206 0.139708 0.000000 0.000000 0.000000 0.000000 0.000000 0.000000 0.265162 -0.871676 -0.217195 1.675880 -0.591646 -0.193787 2.791084 -2.983084 1.536352 -2.010731 3.725415 -1.370220 0.000000 0.000000 0.000000 0.000000 0.000000 0.000000 -0.079977 0.123394 -25.091827 -0.000000 0.000000 0.000000 -0.777857 -0.510288 0.490990 0.000000 0.000000 0.000000 -0.079977 0.123394 -25.091827 -0.000000 0.000000 0.000000 -0.896260 0.231378 0.204663 0.000000 0.000000 0.000000
-37.913056 66.956289 346.751306 0.233477 -0.177830 24.585391 -0.138326 0.258845 -24.584716 -0.000000 0.000000 0.000000 -0.000000 0.000000 0.000000 0.000000 0.000000 0.000000 0.829374 -0.331500 0.063864 -0.847286 -2.389565 -0.084992 1.513961 -4.555016 0.505599 -8.343601 8.089913 0.641297 0.000000 0.000000 0.000000 0.000000 0.000000 0.000000 0.542872 -1.551996 -0.384330 2.838708 -1.050035 -0.325337 5.157702 -5.050237 2.741356 -3.317455 6.393660 -2.438509 0.000000 0.000000 0.000000 0.000000 0.000000 0.000000 -0.138326 0.258845 -24.584716 -0.000000 0.000000 0.000000 -1.266741 -0.882315 0.778582 0.000000 0.000000 0.000000 -0.138326 0.258845 -24.584716 -0.000000 0.000000 0.000000 -1.691031 0.409117 0.405988 0.000000 0.000000 0.000000
-37.915534 66.930259 346.837281 0.326253 -0.299998 24.160983 -0.174889 0.407251 -24.159507 -0.000000 0.000000 0.000000 -0.000000 0.000000 0.000000 0.000000 0.000000 0.000000 1.179892 -0.534616 0.098526 -1.225100 -2.748390 -0.114772 1.678579 -5.677067 0.673848 -10.696999 9.911187 1.127849 0.000000 0.000000 0.000000 0.000000 0.000000 0.000000 0.836509 -2.049586 -0.504661 3.471387 -1.352542 -0.385647 6.997515 -6.271622 3.498438 -3.964115 8.001228 -3.203569 0.000000 0.000000 0.000000 0.000000 0.000000 0.000000 -0.174889 0.407251 -24.159507 -0.000000 0.000000 0.000000 -1.467862 -1.110239 0.866221 0.000000 0.000000 0.000000 -0.174889 0.407251 -24.159507 -0.000000 0.000000 0.000000 -2.384855 0.534137 0.602563 0.000000 0.000000 0.000000
-37.918470 66.910032 346.930114 0.403163 -0.444368 23.819528 -0.189374 0.569332 -23.817024 -0.000000 0.000000 0.000000 -0.000000 0.000000 0.000000 0.000000 0.000000 0.000000 1.487679 -0.762726 0.135034 -1.571219 -2.570363 -0.135857 1.471504 -6.199652 0.789979 -12.050761 10.492599 1.398869 0.000000 0.000000 0.000000 0.000000 0.000000 0.000000 1.149167 -2.370342 -0.580806 3.565071 -1.485939 -0.369860 8.289828 -6.744349 3.750073 -4.027655 8.607072 -3.649702 0.000000 0.000000 0.000000 0.000000 0.000000 0.000000 -0.189374 0.569332 -23.817024 -0.000000 0.000000 0.000000 -1.381959 -1.191802 0.755916 0.000000 0.000000 0.000000 -0.189374 0.569332 -23.817024 0.544502 0.628866 0.175487 -3.522647 -0.009585 0.579501 0.000000 0.000000 0.000000
-37.921865 66.895608 347.029806 0.464266 -0.610996 23.561743 -0.181346 0.745632 -23.558088 0.274395 -0.773004 0.017817 -0.052243 1.542947 0.270316 0.000000 0.000000 0.000000 1.478081 -0.243617 0.135587 -1.885477 -1.854208 -0.147487 0.867691 -6.128769 0.854653 -12.448339 9.860941 1.346894 0.000000 0.000000 0.000000 0.000000 0.000000 0.000000 1.208218 -1.745019 -0.648982 3.115476 -1.444740 -0.275515 9.050441 -6.533609 3.478441 -3.572672 8.272401 -3.746050 0.000000 0.000000 0.000000 0.000000 0.000000 0.000000 -0.181346 0.745632 -23.558088 -0.000000 0.000000 0.000000 -1.009044 -1.128097 0.448042 0.000000 0.000000 0.000000 0.604431 1.025377 -23.314045 0.126158 0.193118 -0.024476 -4.205791 -0.116019 0.694541 0.000000 0.000000 0.000000
-37.940168 66.868682 347.152809 0.488850 -0.848973 23.189795 -0.115082 0.972867 -23.185196 0.301366 -1.092348 0.019504 0.030509 2.035818 0.332440 0.000000 0.000000 0.000000 1.636316 -0.530685 0.195243 -1.347294 -2.015257 -0.349087 -2.435117 -2.111826 1.277908 -10.362187 5.516357 0.340943 0.000000 0.000000 0.000000 0.000000 0.000000 0.000000 1.678628 -2.169123 -0.834386 4.467605 -1.805394 -0.533026 8.270163 -5.171991 3.412167 -2.392920 7.318872 -3.902547 0.000000 0.000000 0.000000 0.000000 0.000000 0.000000 -0.115082 0.972867 -23.185196 -0.000000 0.000000 0.000000 0.501097 -0.819082 -0.771172 0.000000 0.000000 0.000000 0.900600 1.257865 -22.886684 0.426586 0.356130 0.047564 -5.612843 -0.869940 1.222093 0.000000 0.000000 0.000000
-37.976381 66.875688 347.292959 0.481799 -1.132775 23.000412 -0.000918 1.230966 -22.995640 0.316093 -1.413886 0.020348 0.334372 2.322123 0.315250 0.000000 0.000000 0.000000 1.827740 -0.853632 0.260350 -1.632540 0.003933 -0.378673 -2.814033 -0.144845 0.986182 -8.539334 -4.733589 -0.190234 0.000000 0.000000 0.000000 0.000000 0.000000 0.000000 2.212877 -1.801066 -0.842782 3.246150 -1.565836 -0.347572 7.523578 -3.431737 2.284505 -0.086128 5.222666 -3.478191 0.000000 0.000000 0.000000 0.000000 0.000000 0.000000 0.723775 1.653589 -22.828485 -0.503883 -0.670498 -0.188343 1.338860 -0.481921 -1.377495 0.000000 0.000000 0.000000 1.152141 1.563892 -22.661295 0.485213 0.387788 0.051747 -5.933763 -1.288225 1.414209 0.000000 0.000000 0.000000
-37.977180 66.906344 347.449696 0.521751 -1.406608 23.122471 -0.001025 0.612388 -23.110495 0.030004 -0.850821 0.011935 0.873895 2.306420 0.199510 0.000000 0.000000 0.000000 2.073857 -0.595585 0.261469 -2.660257 3.920763 -0.155677 -3.515914 -1.528126 0.701930 -7.041858 -1.151593 -0.648136 0.000000 0.000000 0.000000 0.000000 0.000000 0.000000 2.860355 -0.752700 -0.700754 -1.565658 -0.506851 0.583326 7.855436 -0.082075 -0.801163 1.712869 1.070551 -1.217127 0.000000 0.000000 0.000000 0.000000 0.000000 0.000000 0.970225 2.172243 -22.916350 -0.564415 -0.969800 -0.234194 2.542702 0.035014 -2.233222 0.000000 0.000000 0.000000 1.276600 1.946210 -22.758324 0.623549 0.310962 0.056327 -5.699963 -1.206466 1.147940 0.000000 0.000000 0.000000
